{"title":"976-Evil II (1992) Xvid VHS Rip.Zmd","uid":8407942,"size":1466510595,"categoryP":"video","categoryS":"movies","magnet":"?xt=urn:btih:616e7ed28e04c45dd15a85dffe788b8eb83d5441&amp;dn=976-Evil+II+%281992%29+Xvid+VHS+Rip.Zmd&amp;tr=udp%3A%2F%2Ftracker.openbittorrent.com%3A80&amp;tr=udp%3A%2F%2Fopen.demonii.com%3A1337&amp;tr=udp%3A%2F%2Ftracker.coppersurfer.tk%3A6969&amp;tr=udp%3A%2F%2Fexodus.desync.com%3A6969","seeders":0,"leechers":6,"uploader":"R0thschild","files":4,"time":1366844366,"description":"--------------------------------------------\n &lt;a href=&quot;\nhttp://www.imdb.com/title/tt0101256/&quot; rel=&quot;nofollow&quot; target=&quot;_NEW&quot;&gt;\nhttp://www.imdb.com/title/tt0101256/&lt;/a&gt;\n\n93 min  -  Horror  -  August 1992 (Italy)\n3,7 Your rating:    -/10   Ratings: 3,7/10 from 757 users   \n\nSUBTiTLES.......: Bulgarian\n\nLanguage : English\n\nFormat                           : AVI\nFormat/Info                      : Audio Video Interleave\nFile size                        : 1.37 GiB\nDuration                         : 1h 27mn\nOverall bit rate                 : 2 240 Kbps\nWriting application              : VirtualDubMod 1.5.10.2 (build 2542/release)\nWriting library                  : VirtualDubMod build 2542/release\n\nVideo\nID                               : 0\nFormat                           : MPEG-4 Visual\nFormat profile                   : Advanced Simple@L5\nFormat settings, BVOP            : 1\nFormat settings, QPel            : No\nFormat settings, GMC             : No warppoints\nFormat settings, Matrix          : Default (H.263)\nMuxing mode                      : Packed bitstream\nCodec ID                         : XVID\nCodec ID/Hint                    : XviD\nDuration                         : 1h 27mn\nBit rate                         : 2 100 Kbps\nWidth                            : 720 pixels\nHeight                           : 540 pixels\nDisplay aspect ratio             : 4:3\nFrame rate                       : 29.970 fps\nColor space                      : YUV\nChroma subsampling               : 4:2:0\nBit depth                        : 8 bits\nScan type                        : Progressive\nCompression mode                 : Lossy\nBits/(Pixel*Frame)               : 0.180\nStream size                      : 1.28 GiB (94%)\nWriting library                  : XviD 62\n\nAudio\nID                               : 1\nFormat                           : MPEG Audio\nFormat version                   : Version 1\nFormat profile                   : Layer 3\nMode                             : Joint stereo\nMode extension                   : MS Stereo\nCodec ID                         : 55\nCodec ID/Hint                    : MP3\nDuration                         : 1h 27mn\nBit rate mode                    : Constant\nBit rate                         : 128 Kbps\nChannel(s)                       : 2 channels\nSampling rate                    : 48.0 KHz\nCompression mode                 : Lossy\nStream size                      : 79.9 MiB (6%)\nAlignment                        : Aligned on interleaves\nInterleave, duration             : 33 ms (1.00 video frame)\nInterleave, preload duration     : 504 ms\nWriting library                  : LAME3.98.2\n\n--------------------------------------------\n\nMore at   &lt;a href=&quot;\nhttp://publichash.com/&quot; rel=&quot;nofollow&quot; target=&quot;_NEW&quot;&gt;\nhttp://publichash.com/&lt;/a&gt;\n\n--------------------------------------------","torrent":{"xt":"urn:btih:616e7ed28e04c45dd15a85dffe788b8eb83d5441","amp;dn":"976-Evil+II+%281992%29+Xvid+VHS+Rip.Zmd","amp;tr":["udp%3A%2F%2Ftracker.openbittorrent.com%3A80","udp%3A%2F%2Fopen.demonii.com%3A1337","udp%3A%2F%2Ftracker.coppersurfer.tk%3A6969","udp%3A%2F%2Fexodus.desync.com%3A6969"],"infoHash":"616e7ed28e04c45dd15a85dffe788b8eb83d5441","infoHashBuffer":{"type":"Buffer","data":[97,110,126,210,142,4,196,93,209,90,133,223,254,120,139,142,184,61,84,65]},"announce":[],"urlList":[]}}